<svg width="630" height="630" viewBox="0 0 630 630" fill="none" xmlns="http://www.w3.org/2000/svg">
  <path fill-rule="evenodd" clip-rule="evenodd"
    d="M0 100C0 50.3728 36.1506 9.18897 83.5547 1.34575C84.3138 2.26493 85.1234 3.15641 85.9835 4.0165L186.304 104.337C140.118 162.074 112.5 235.312 112.5 315C112.5 394.688 140.118 467.926 186.304 525.663L85.9835 625.984C85.1234 626.844 84.3139 627.735 83.5548 628.654C36.1507 620.811 0 579.627 0 530V100ZM188.033 630L239.337 578.696C266.063 600.075 296.11 617.476 328.581 630H188.033ZM328.581 0C296.11 12.5243 266.063 29.9248 239.337 51.3038L188.033 0H328.581ZM187.5 315C187.5 170.025 305.025 52.5 450 52.5C519.672 52.5 583.005 79.6436 630 123.933V506.067C583.005 550.356 519.672 577.5 450 577.5C305.025 577.5 187.5 459.975 187.5 315Z"
    fill="white" />
</svg>